<?xml version="1.0" encoding="utf-8"?>
<!-- Generator: Adobe Illustrator 14.0.0, SVG Export Plug-In . SVG Version: 6.00 Build 43363)  -->
<!DOCTYPE svg PUBLIC "-//W3C//DTD SVG 1.0//EN" "http://www.w3.org/TR/2001/REC-SVG-20010904/DTD/svg10.dtd">
<svg version="1.0" id="Layer_1" xmlns="http://www.w3.org/2000/svg" xmlns:xlink="http://www.w3.org/1999/xlink" x="0px" y="0px"
	 width="87.22px" height="100px" viewBox="0 0 87.22 100" enable-background="new 0 0 87.22 100" xml:space="preserve">
<path fill-rule="evenodd" clip-rule="evenodd" d="M83.624,75.961l-8.729,3.923L62.653,52.71l-1.188-2.625l-2.874,0.039L32.136,50.5
	l-0.243-5.646h21.926v-8.781H31.531l-0.77-18.234c3.295-1.436,5.602-4.716,5.602-8.534C36.364,4.16,32.194,0,27.056,0
	c-5.148,0-9.312,4.16-9.312,9.305c0,3.25,1.675,6.113,4.201,7.767l1.604,38.063l0.171,4.263l4.271-0.058l27.842-0.395l12.862,28.526
	l1.803,3.999l3.988-1.789l12.733-5.717L83.624,75.961L83.624,75.961L83.624,75.961z"/>
<path fill-rule="evenodd" clip-rule="evenodd" d="M56.361,73.589l-1.18-0.279c-2.579,10.545-11.988,17.91-22.86,17.91
	c-12.984,0-23.542-10.555-23.542-23.534c0-7.993,4.007-15.276,10.568-19.615l-1.112-7.623l-0.77-1.477C6.69,44.55,0,55.551,0,67.686
	C0,85.499,14.5,100,32.321,100c12.268,0,23.156-6.833,28.63-17.32L56.361,73.589L56.361,73.589L56.361,73.589z"/>
</svg>
