<?xml version="1.0" encoding="utf-8"?>
<!-- Generator: Adobe Illustrator 14.0.0, SVG Export Plug-In . SVG Version: 6.00 Build 43363)  -->
<!DOCTYPE svg PUBLIC "-//W3C//DTD SVG 1.0//EN" "http://www.w3.org/TR/2001/REC-SVG-20010904/DTD/svg10.dtd">
<svg version="1.0" id="Layer_1" xmlns="http://www.w3.org/2000/svg" xmlns:xlink="http://www.w3.org/1999/xlink" x="0px" y="0px"
	 width="100px" height="64.367px" viewBox="0 0 100 64.367" enable-background="new 0 0 100 64.367" xml:space="preserve">
<path d="M92.573,0H7.427C3.332,0,0,3.332,0,7.427v49.512c0,4.096,3.332,7.428,7.427,7.428h85.146c4.095,0,7.427-3.332,7.427-7.428
	V7.427C100,3.332,96.668,0,92.573,0z M7.427,4.501h85.146c1.613,0,2.926,1.312,2.926,2.926v8.327H4.501V7.427
	C4.501,5.813,5.813,4.501,7.427,4.501z M92.573,59.865H7.427c-1.613,0-2.926-1.312-2.926-2.926V32.183h90.998v24.756
	C95.499,58.552,94.187,59.865,92.573,59.865z"/>
<rect x="8.359" y="48.162" width="11.928" height="3.998"/>
<rect x="24.145" y="48.162" width="25.855" height="3.998"/>
</svg>
