<?xml version="1.0" encoding="utf-8"?>
<!-- Generator: Adobe Illustrator 14.0.0, SVG Export Plug-In . SVG Version: 6.00 Build 43363)  -->
<!DOCTYPE svg PUBLIC "-//W3C//DTD SVG 1.0//EN" "http://www.w3.org/TR/2001/REC-SVG-20010904/DTD/svg10.dtd">
<svg version="1.0" id="Layer_1" xmlns="http://www.w3.org/2000/svg" xmlns:xlink="http://www.w3.org/1999/xlink" x="0px" y="0px"
	 width="100px" height="76.911px" viewBox="0 0 100 76.911" enable-background="new 0 0 100 76.911" xml:space="preserve">
<path d="M76.869,16.817L76.869,16.817L76.869,16.817H53.246V0h-6.491v16.817H23.132L0,64.615
	c5.015,7.418,13.503,12.296,23.131,12.296c9.629,0,18.118-4.877,23.133-12.296L24.952,20.579h50.097L53.737,64.615
	c5.015,7.418,13.503,12.296,23.131,12.296S94.985,72.033,100,64.615L76.869,16.817z M4.19,64.615l18.941-39.139l18.941,39.139H4.19z
	 M57.928,64.615l18.941-39.139l18.941,39.139H57.928z"/>
</svg>
