<svg xmlns="http://www.w3.org/2000/svg" xmlns:xlink="http://www.w3.org/1999/xlink" version="1.0" x="0px" y="0px" width="99.828px" height="82.15px" viewBox="0 0 99.828 82.15" overflow="visible" enable-background="new 0 0 99.828 82.15" xml:space="preserve">
    <path d="M97.472,20.415H48.339v-5.571h4.885V4.799H36.116V0H17.095v4.799H0v10.045h4.886v57.261H0V82.15h53.225V72.104h-4.885 v-5.673H75.12c1.241,0,2.258-0.961,2.345-2.178c0.058-0.605,0.146-1.204,0.25-1.795h-3.642v-3.968h4.74 c2.969-7.801,10.179-13.509,18.815-14.3l0.005-0.011c1.227-0.084,2.194-1.101,2.194-2.348V22.767 C99.828,21.47,98.772,20.415,97.472,20.415z M24.153,70.479c0,0.871-0.701,1.573-1.568,1.573h-9.677 c-0.868,0-1.571-0.702-1.571-1.573V16.348c0-0.867,0.703-1.57,1.571-1.57h2.924c2.988,0.077,5.805,0.814,8.321,2.075V70.479z M35.075,70.479c0,0.871-0.703,1.573-1.574,1.573h-3.067c-0.867,0-1.57-0.702-1.57-1.573v-50.33 c3.811,3.591,6.195,8.681,6.211,14.333V70.479z M54.75,62.459h-6.443v-3.968h6.443V62.459z M54.75,28.361h-6.443V24.39h6.443 V28.361z M67.627,62.459h-6.44v-3.968h6.44V62.459z M67.627,28.361h-6.44V24.39h6.44V28.361z M80.513,28.361h-6.439V24.39 h6.439V28.361z M93.394,28.361h-6.438V24.39h6.438V28.361z"/>
</svg>