<?xml version="1.0" encoding="utf-8"?>
<!-- Generator: Adobe Illustrator 15.1.0, SVG Export Plug-In . SVG Version: 6.00 Build 0)  -->
<!DOCTYPE svg PUBLIC "-//W3C//DTD SVG 1.1//EN" "http://www.w3.org/Graphics/SVG/1.1/DTD/svg11.dtd">
<svg version="1.1" id="Layer_1" xmlns="http://www.w3.org/2000/svg" xmlns:xlink="http://www.w3.org/1999/xlink" x="0px" y="0px"
	 width="46.016px" height="51.52px" viewBox="29.253 11.161 46.016 51.52" enable-background="new 29.253 11.161 46.016 51.52"
	 xml:space="preserve">
<path d="M75.27,62.649V35.868c0-1.241-0.961-2.258-2.178-2.345c-0.605-0.059-1.205-0.146-1.795-0.25v3.642h-3.969v-4.739
	c-7.801-2.97-13.508-10.18-14.3-18.815l-0.011-0.005c-0.085-1.227-1.102-2.194-2.349-2.194H31.606
	c-1.298-0.001-2.353,1.056-2.353,2.354v49.133 M71.297,56.239v6.442H67.33v-6.442H71.297z M37.2,56.239v6.442h-3.971v-6.442H37.2z
	 M71.297,43.362v6.439H67.33v-6.439H71.297z M37.2,43.362v6.439h-3.971v-6.439H37.2z M37.2,30.475v6.439h-3.971v-6.439H37.2z
	 M37.2,17.594v6.438h-3.971v-6.438H37.2z"/>
</svg>
