<?xml version="1.0" encoding="utf-8"?>
<!-- Generator: Adobe Illustrator 14.0.0, SVG Export Plug-In . SVG Version: 6.00 Build 43363)  -->
<!DOCTYPE svg PUBLIC "-//W3C//DTD SVG 1.0//EN" "http://www.w3.org/TR/2001/REC-SVG-20010904/DTD/svg10.dtd">
<svg version="1.0" id="Layer_1" xmlns="http://www.w3.org/2000/svg" xmlns:xlink="http://www.w3.org/1999/xlink" x="0px" y="0px"
	 width="74.469px" height="100px" viewBox="0 0 74.469 100" enable-background="new 0 0 74.469 100" xml:space="preserve">
<path d="M74.267,85.612c-8.182-8.181-16.362-16.361-24.543-24.543c-0.648-0.648-1.298-1.298-1.947-1.947
	c-0.17-0.17-0.34-0.34-0.51-0.51c0-1.815,0-3.631,0-5.446c0-6.993,0-13.986,0-20.979c0-0.778,0-1.556,0-2.334
	c3.59,0,7.18,0,10.771,0c0.489,0,0.927-0.611,0.604-1.053c-6.646-9.093-13.292-18.186-19.938-27.278
	c-0.422-0.578-1.289-2.255-2.092-1.157c-0.977,1.336-1.952,2.671-2.929,4.007c-4.234,5.793-8.468,11.587-12.703,17.38
	c-1.717,2.349-3.434,4.698-5.151,7.048c-0.323,0.442,0.115,1.053,0.604,1.053c3.59,0,7.181,0,10.771,0c0,5.035,0,10.069,0,15.104
	c0,3.433,0,6.865,0,10.298c0,0.971,0,1.942,0,2.912c0,0.149,0,0.298,0,0.446c-8.426,8.426-16.853,16.853-25.279,25.279
	c-0.574,0.573-1.147,1.146-1.72,1.721c-0.146,0.146-0.204,0.309-0.204,0.467C0,86.089,0,86.098,0,86.106c0,0.01,0,0.019,0.001,0.027
	c0,0.159,0.058,0.322,0.204,0.468C4.603,91,9.002,95.399,13.401,99.798c0.27,0.27,0.72,0.27,0.99,0
	c7.615-7.615,15.23-15.229,22.845-22.845c7.614,7.615,15.229,15.229,22.845,22.845c0.27,0.27,0.72,0.27,0.989,0
	c4.399-4.398,8.798-8.798,13.197-13.196C74.537,86.332,74.537,85.882,74.267,85.612z"/>
</svg>
