<?xml version="1.0" encoding="utf-8"?>
<!-- Generator: Adobe Illustrator 14.0.0, SVG Export Plug-In . SVG Version: 6.00 Build 43363)  -->
<!DOCTYPE svg PUBLIC "-//W3C//DTD SVG 1.0//EN" "http://www.w3.org/TR/2001/REC-SVG-20010904/DTD/svg10.dtd">
<svg version="1.0" id="Layer_1" xmlns="http://www.w3.org/2000/svg" xmlns:xlink="http://www.w3.org/1999/xlink" x="0px" y="0px"
	 width="100px" height="72.798px" viewBox="0 0 100 72.798" enable-background="new 0 0 100 72.798" xml:space="preserve">
<path d="M2.239,72.414c11.696-11.695,23.392-23.391,35.087-35.087c0.272-0.273,0.382-0.579,0.382-0.876
	c0.001-0.017,0-0.034,0.001-0.051c-0.001-0.017,0-0.034-0.001-0.051c0-0.297-0.109-0.604-0.382-0.876
	C25.631,23.775,13.936,12.08,2.239,0.384C1.431-0.425,0,0.167,0,1.312c0,23.391,0,46.783,0,70.174
	C0,72.63,1.431,73.223,2.239,72.414z"/>
<path d="M55.992,0.422c-0.011-0.013-0.023-0.024-0.034-0.036c-0.013-0.012-0.024-0.024-0.037-0.035C55.712,0.141,55.418,0,55.032,0
	c-3.354,0-6.708,0-10.062,0c-0.715,0-1.312,0.597-1.312,1.312c0,23.391,0,46.783,0,70.174c0,0.716,0.598,1.312,1.312,1.312
	c3.354,0,6.708,0,10.062,0c0.715,0,1.312-0.597,1.312-1.312c0-23.391,0-46.783,0-70.174C56.344,0.926,56.203,0.632,55.992,0.422z"/>
<path d="M62.674,37.317c11.695,11.695,23.391,23.391,35.087,35.086c0.004,0.006,0.008,0.007,0.013,0.011
	c0.013,0.012,0.025,0.022,0.039,0.032c0.442,0.406,0.964,0.418,1.388,0.207c0.428-0.159,0.765-0.528,0.792-1.104
	c0.003-0.02,0.005-0.039,0.007-0.06c0-0.006,0.001-0.009,0.001-0.014c0-23.392,0-46.783,0-70.174c0-1.145-1.431-1.737-2.239-0.928
	C86.064,12.07,74.369,23.766,62.674,35.461C62.168,35.967,62.168,36.812,62.674,37.317z"/>
</svg>
