<?xml version="1.0" encoding="utf-8"?>
<!-- Generator: Adobe Illustrator 14.0.0, SVG Export Plug-In . SVG Version: 6.00 Build 43363)  -->
<!DOCTYPE svg PUBLIC "-//W3C//DTD SVG 1.0//EN" "http://www.w3.org/TR/2001/REC-SVG-20010904/DTD/svg10.dtd">
<svg version="1.0" id="Layer_1" xmlns="http://www.w3.org/2000/svg" xmlns:xlink="http://www.w3.org/1999/xlink" x="0px" y="0px"
	 width="47.332px" height="100px" viewBox="0 0 47.332 100" enable-background="new 0 0 47.332 100" xml:space="preserve">
<path id="path9598" d="M9.006,99.405c-1.11-0.299-3.206-1.624-4.659-2.942c-4.495-4.086-4.35-2.738-4.347-40.14
	C0.003,34.176,0.195,22.955,0.599,21.48c0.874-3.206,5.505-7.729,8.39-8.195l2.209-0.355l0.182-5.323
	C11.596,1.331,12.334,0,15.598,0c3.185,0,3.765,1.108,3.765,7.174v5.185l9.279,0.262c8.024,0.227,9.575,0.414,11.468,1.394
	c2.878,1.49,5.936,4.969,6.648,7.562c0.372,1.358,0.571,13.395,0.573,34.746c0.003,37.383,0.146,36.057-4.33,40.128
	c-1.658,1.505-3.511,2.608-5.032,2.994C34.984,100.208,11.868,100.174,9.006,99.405z M41.848,47.201
	c0.683-0.688,0.971-22.873,0.319-24.588c-0.29-0.761-2.401-0.861-18.232-0.861c-15.83,0-17.942,0.101-18.23,0.861
	c-0.651,1.715-0.363,23.899,0.319,24.588C6.947,48.135,40.925,48.135,41.848,47.201z"/>
</svg>
