<?xml version="1.0" encoding="utf-8"?>
<!-- Generator: Adobe Illustrator 14.0.0, SVG Export Plug-In . SVG Version: 6.00 Build 43363)  -->
<!DOCTYPE svg PUBLIC "-//W3C//DTD SVG 1.0//EN" "http://www.w3.org/TR/2001/REC-SVG-20010904/DTD/svg10.dtd">
<svg version="1.0" id="Layer_1" xmlns="http://www.w3.org/2000/svg" xmlns:xlink="http://www.w3.org/1999/xlink" x="0px" y="0px"
	 width="98.635px" height="100px" viewBox="0 0 98.635 100" enable-background="new 0 0 98.635 100" xml:space="preserve">
<polygon points="21.565,10.782 21.565,0 10.783,0 10.783,10.782 0,10.782 0,21.565 10.783,21.565 10.783,32.346 21.565,32.346 
	21.565,21.565 32.347,21.565 32.347,10.782 "/>
<path d="M55.593,44.252c7.439,0,13.475-6.041,13.475-13.477c0-7.446-6.035-13.473-13.475-13.473
	c-7.439,0-13.473,6.026-13.473,13.473C42.12,38.212,48.154,44.252,55.593,44.252z"/>
<path d="M34.488,100V88.042L22.497,91.38c-0.88,0.35-1.836,0.545-2.835,0.545c-4.24,0-7.678-3.446-7.678-7.682
	c0-1.594,0.484-3.072,1.311-4.296l19.234-26.374c2.088-2.86,5.004-6.047,11.154-6.047h23.254c6.146,0,9.065,3.187,11.15,6.047
	l19.233,26.374c0.827,1.224,1.314,2.702,1.314,4.296c0,4.235-3.441,7.682-7.678,7.682c-0.998,0-1.958-0.195-2.835-0.545
	l-11.994-3.338V100H34.488z M55.31,91.647L55.31,91.647l15.537-5.142l-0.35-0.097c-10.72-3.155-6.547-17.319,4.173-14.157
	l1.465,0.492V56.75L55.31,63.553L34.485,56.75v15.994l1.458-0.492c10.727-3.162,14.9,11.002,4.173,14.157l-0.343,0.097L55.31,91.647
	L55.31,91.647z"/>
</svg>
