<?xml version="1.0" encoding="utf-8"?>
<!-- Generator: Adobe Illustrator 14.0.0, SVG Export Plug-In . SVG Version: 6.00 Build 43363)  -->
<!DOCTYPE svg PUBLIC "-//W3C//DTD SVG 1.0//EN" "http://www.w3.org/TR/2001/REC-SVG-20010904/DTD/svg10.dtd">
<svg version="1.0" id="Layer_1" xmlns="http://www.w3.org/2000/svg" xmlns:xlink="http://www.w3.org/1999/xlink" x="0px" y="0px"
	 width="100px" height="65.775px" viewBox="0 0 100 65.775" enable-background="new 0 0 100 65.775" xml:space="preserve">
<path d="M97.627,63.333c-3.061-2.112-5.205-5.248-6.668-8.203c4.944-3.035,8.047-7.409,8.047-12.272
	c0-8.125-8.665-14.883-20.105-16.312c0,0.058,0.003,0.116,0.003,0.173c0,11.305-10.888,20.895-25.979,24.268
	c4.22,5.052,12.248,8.467,21.462,8.467c2.849,0,5.585-0.328,8.13-0.928C87.969,62.604,106.512,69.466,97.627,63.333z"/>
<path d="M77.37,25.388C77.23,11.351,60.309,0,39.451,0C18.508,0,1.53,11.444,1.53,25.562c0,7.491,4.779,14.228,12.395,18.903
	c-2.253,4.551-5.556,9.381-10.271,12.636c-13.685,9.445,14.876-1.123,23.275-7.405c3.92,0.924,8.134,1.428,12.523,1.428
	c4.172,0,8.187-0.455,11.942-1.294c15.091-3.373,25.979-12.962,25.979-24.268C77.373,25.504,77.37,25.446,77.37,25.388z"/>
</svg>
