<?xml version="1.0" encoding="utf-8"?>
<!-- Generator: Adobe Illustrator 14.0.0, SVG Export Plug-In . SVG Version: 6.00 Build 43363)  -->
<!DOCTYPE svg PUBLIC "-//W3C//DTD SVG 1.0//EN" "http://www.w3.org/TR/2001/REC-SVG-20010904/DTD/svg10.dtd">
<svg version="1.0" id="Layer_1" xmlns="http://www.w3.org/2000/svg" xmlns:xlink="http://www.w3.org/1999/xlink" x="0px" y="0px"
	 width="52.365px" height="100px" viewBox="0 0 52.365 100" enable-background="new 0 0 52.365 100" xml:space="preserve">
<path d="M40.378,28.004V5.047C40.378,2.26,38.118,0,35.331,0H17.034c-2.787,0-5.048,2.26-5.048,5.047v22.957
	C4.776,32.668,0,40.773,0,50s4.776,17.332,11.986,21.996v22.957c0,2.787,2.261,5.047,5.048,5.047h18.297
	c2.787,0,5.047-2.26,5.047-5.047V71.996C47.589,67.332,52.365,59.227,52.365,50S47.589,32.668,40.378,28.004z M26.183,73.344
	C13.29,73.344,2.839,62.893,2.839,50S13.29,26.656,26.183,26.656S49.526,37.107,49.526,50S39.075,73.344,26.183,73.344z"/>
<path d="M42.17,38.554c-5.277,3.346-10.555,6.694-15.832,10.041c-2.748-2.749-5.498-5.499-8.247-8.248
	c-1.008-1.008-2.568,0.554-1.561,1.561c2.957,2.958,5.914,5.915,8.872,8.873c0.086,0.085,0.176,0.146,0.268,0.196
	c0.295,0.188,0.677,0.226,1.07-0.024c5.515-3.497,11.029-6.995,16.544-10.493C44.482,39.701,43.376,37.789,42.17,38.554z"/>
</svg>
