<?xml version="1.0" encoding="utf-8"?>
<!-- Generator: Adobe Illustrator 14.0.0, SVG Export Plug-In . SVG Version: 6.00 Build 43363)  -->
<!DOCTYPE svg PUBLIC "-//W3C//DTD SVG 1.0//EN" "http://www.w3.org/TR/2001/REC-SVG-20010904/DTD/svg10.dtd">
<svg version="1.0" id="Layer_1" xmlns="http://www.w3.org/2000/svg" xmlns:xlink="http://www.w3.org/1999/xlink" x="0px" y="0px"
	 width="70.388px" height="100px" viewBox="0 0 70.388 100" enable-background="new 0 0 70.388 100" xml:space="preserve">
<path d="M69.977,45.519h-4.991V29.791C64.985,13.287,51.698,0,35.195,0C18.69,0,5.404,13.287,5.404,29.791v15.729H0.413
	C0.185,45.519,0,45.703,0,45.93v53.66C0,99.817,0.185,100,0.413,100h69.563c0.229,0,0.411-0.183,0.411-0.409V45.93
	C70.388,45.703,70.205,45.519,69.977,45.519z M13.677,29.791c0-11.92,9.598-21.516,21.518-21.516
	c11.919,0,21.515,9.596,21.515,21.516v15.729H13.677V29.791z"/>
</svg>
