<?xml version="1.0" encoding="utf-8"?>
<!-- Generator: Adobe Illustrator 14.0.0, SVG Export Plug-In . SVG Version: 6.00 Build 43363)  -->
<!DOCTYPE svg PUBLIC "-//W3C//DTD SVG 1.0//EN" "http://www.w3.org/TR/2001/REC-SVG-20010904/DTD/svg10.dtd">
<svg version="1.0" id="Layer_1" xmlns="http://www.w3.org/2000/svg" xmlns:xlink="http://www.w3.org/1999/xlink" x="0px" y="0px"
	 width="100px" height="69.413px" viewBox="0 0 100 69.413" enable-background="new 0 0 100 69.413" xml:space="preserve">
<circle cx="50.045" cy="38.771" r="12.725"/>
<path d="M93.502,8.401H28.701V0H11.733v8.401H6.499C2.91,8.401,0,11.381,0,15.057v47.699c0,3.677,2.91,6.656,6.499,6.656h87.003
	c3.589,0,6.498-2.979,6.498-6.656V15.057C100,11.381,97.091,8.401,93.502,8.401z M50.045,63.546
	c-13.683,0-24.774-11.093-24.774-24.775c0-13.682,11.092-24.774,24.774-24.774c13.682,0,24.774,11.092,24.774,24.774
	C74.819,52.454,63.728,63.546,50.045,63.546z"/>
</svg>
