<?xml version="1.0" encoding="utf-8"?>
<!-- Generator: Adobe Illustrator 14.0.0, SVG Export Plug-In . SVG Version: 6.00 Build 43363)  -->
<!DOCTYPE svg PUBLIC "-//W3C//DTD SVG 1.0//EN" "http://www.w3.org/TR/2001/REC-SVG-20010904/DTD/svg10.dtd">
<svg version="1.0" id="Layer_1" xmlns="http://www.w3.org/2000/svg" xmlns:xlink="http://www.w3.org/1999/xlink" x="0px" y="0px"
	 width="99.999px" height="61.542px" viewBox="0 0 99.999 61.542" enable-background="new 0 0 99.999 61.542" xml:space="preserve">
<path d="M90.244,11.145C80.22,2.439,64.358-1.607,48.849,0.588c-2.031,0.288-3.739,1.669-4.443,3.595
	c-3.238,8.854-4.881,17.799-4.881,26.587c0,8.789,1.643,17.734,4.881,26.587c0.705,1.927,2.413,3.308,4.443,3.596
	c15.509,2.194,31.371-1.851,41.395-10.558c6.291-5.463,9.755-12.432,9.755-19.625C99.999,23.578,96.535,16.608,90.244,11.145z
	 M49.628,55.448c-3.098-8.467-4.543-16.83-4.543-24.677c0-7.847,1.445-16.21,4.543-24.676c23.162-3.278,44.811,8.853,44.811,24.676
	C94.438,46.594,72.79,58.724,49.628,55.448z"/>
<rect y="27.936" width="32.274" height="5.592"/>
<path d="M0,15.112v5.591h32.874c0.228-1.794,0.516-3.59,0.863-5.591H0z"/>
<path d="M0,40.792v5.56h33.737c-0.347-1.794-0.635-3.591-0.863-5.56H0z"/>
<path d="M0,53.584v5.592h37.235c-0.633-1.791-1.204-3.587-1.718-5.592H0z"/>
<g>
	<path d="M0,2.288V7.88h35.517c0.513-1.799,1.085-3.594,1.718-5.592H0z"/>
	<path d="M0,7.88L0,7.88L0,7.88V7.878V7.88c0,0,0-0.001-0.001-0.001V7.88V7.878l0,0V7.88l0,0l0,0v0l0,0l0,0l0,0
		C0,7.88,0,7.88,0,7.88L0,7.88L0,7.88C0,7.88,0,7.88,0,7.88z M-0.001,7.88L-0.001,7.88L-0.001,7.88L-0.001,7.88L-0.001,7.88
		L-0.001,7.88C0,7.88,0,7.88-0.001,7.88L-0.001,7.88L-0.001,7.88C-0.001,7.88,0,7.88-0.001,7.88C0,7.88,0,7.88-0.001,7.88z M0,7.88
		L0,7.88L0,7.88L0,7.88L0,7.88L0,7.88L0,7.88z M0,7.88L0,7.88C0,7.88,0,7.88,0,7.88C0,7.88,0,7.88,0,7.88L0,7.88z M0,7.88L0,7.88
		L0,7.88L0,7.88L0,7.88z"/>
</g>
</svg>
