<?xml version="1.0" encoding="utf-8"?>
<!-- Generator: Adobe Illustrator 14.0.0, SVG Export Plug-In . SVG Version: 6.00 Build 43363)  -->
<!DOCTYPE svg PUBLIC "-//W3C//DTD SVG 1.0//EN" "http://www.w3.org/TR/2001/REC-SVG-20010904/DTD/svg10.dtd">
<svg version="1.0" id="Layer_1" xmlns="http://www.w3.org/2000/svg" xmlns:xlink="http://www.w3.org/1999/xlink" x="0px" y="0px"
	 width="69.725px" height="100px" viewBox="0 0 69.725 100" enable-background="new 0 0 69.725 100" xml:space="preserve">
<path d="M63.19,88.729c0,2.625-2.126,4.744-4.744,4.744c-2.62,0-4.743-2.119-4.743-4.744V84.59h9.487V88.729z"/>
<polygon points="50.672,100 37.18,100 37.2,93.342 32.679,93.342 32.672,100 19.154,100 19.154,84.59 50.672,84.59 "/>
<path d="M16.02,88.729c0,2.625-2.123,4.744-4.747,4.744c-2.614,0-4.741-2.119-4.741-4.744V84.59h9.488V88.729z"/>
<path d="M34.865,0c6.77,0,12.254,5.488,12.254,12.26c0,6.77-5.484,12.257-12.254,12.257c-6.774,0-12.261-5.488-12.261-12.257
	C22.604,5.488,28.091,0,34.865,0z"/>
<path d="M69.725,79.812H0V39.065h69.725V79.812z M58.834,42.43H11.155v34.072h47.679V42.43z"/>
<path d="M37.18,62.57v2.991h8.731c0.363,0,0.898,0.326,0.898,0.891c0,5.094-0.64,7.493-3.321,7.493
	c-2.782,0-3.354-6.025-6.309-6.423c0,0,0,4.515,0,5.767h-4.667c0-1.252,0-5.776,0-5.776c-3.099,0.235-3.599,6.433-6.49,6.433
	c-2.682,0-3.176-2.399-3.176-7.493c0-0.564,0.535-0.891,0.898-0.891h8.768V62.57h-9.078c-0.528,0-0.949-0.421-0.949-0.942
	s0.42-0.941,0.949-0.941h9.078v-2.991H22.294c-0.521,0-0.944-0.421-0.944-0.945c0-0.519,0.422-0.946,0.944-0.946h10.218v-2.987
	h-9.591c-0.521,0-0.945-0.421-0.945-0.945c0-0.519,0.424-0.949,0.945-0.949h9.591v-2.984H25c-0.525,0-0.945-0.427-0.945-0.942
	c0-0.528,0.42-0.952,0.945-0.952h7.513v-1.652h4.667v1.652h7.514c0.521,0,0.945,0.424,0.945,0.952c0,0.515-0.424,0.942-0.945,0.942
	H37.18v2.984h9.619c0.525,0,0.949,0.431,0.949,0.949c0,0.524-0.424,0.945-0.949,0.945H37.18v2.987h10.249
	c0.521,0,0.945,0.428,0.945,0.946c0,0.524-0.424,0.945-0.945,0.945H37.18v2.991h9.081c0.521,0,0.945,0.42,0.945,0.941
	s-0.424,0.942-0.945,0.942H37.18z"/>
<path d="M49.147,27.515H20.986c-5.094,0-9.811,2.718-12.46,6.772h52.674C58.716,30.233,54.241,27.515,49.147,27.515z"/>
</svg>
